<?xml version="1.0" encoding="utf-8"?>
<!-- Generator: Adobe Illustrator 17.0.0, SVG Export Plug-In . SVG Version: 6.00 Build 0)  -->
<!DOCTYPE svg PUBLIC "-//W3C//DTD SVG 1.1//EN" "http://www.w3.org/Graphics/SVG/1.1/DTD/svg11.dtd">
<svg version="1.1" id="Layer_1" xmlns="http://www.w3.org/2000/svg" xmlns:xlink="http://www.w3.org/1999/xlink" x="0px" y="0px"
	 width="841.89px" height="595.28px" viewBox="0 0 841.89 595.28" enable-background="new 0 0 841.89 595.28" xml:space="preserve">
<g>
	<path d="M353.824,461.452c-33.613-13.862-65.77-27.123-99.124-40.878c1.246,2.569,1.861,4.158,2.735,5.589
		c9.457,15.483,18.971,30.93,28.42,46.417c1.232,2.02,2.189,4.209,3.273,6.319c-0.348,0.297-0.696,0.594-1.044,0.891
		c-1.625-0.589-3.329-1.022-4.865-1.791c-28.945-14.5-57.85-29.081-86.82-43.532c-4.743-2.366-7.228-5.975-8.29-11.062
		c-3.328-15.942-6.833-31.848-10.278-47.766c-0.339-1.567-0.714-3.127-1.114-4.679c-1.773-6.892-2.293-7.374-10.441-9.484
		c0.952,4.28,1.858,8.353,2.97,13.353c-2.536-0.439-4.065-0.464-5.411-0.973c-10.656-4.037-20.316-9.829-28.397-17.838
		c-7.981-7.91-15.515-16.278-23.126-24.555c-4.599-5-6.188-11.023-5.844-17.803c0.501-9.862,0.562-19.745,0.953-29.614
		c0.175-4.404-0.81-8.132-4.475-10.945c-2.989-2.294-3.919-5.518-3.645-9.188c0.831-11.133-2.917-20.709-9.773-29.323
		c-2.134-2.681-3.84-5.714-5.622-8.659c-3.299-5.452-3.244-6.002,1.805-10.227c3.52-2.946,7.173-5.745,10.88-8.454
		c15.394-11.247,30.76-22.536,46.3-33.577c4.333-3.079,6.299-6.508,6.24-12.012c-0.205-19.182-0.798-14.8,11.097-26.864
		c9.194-9.325,18.192-18.842,27.325-28.228c3.126-3.213,5.119-6.84,6.079-11.317c4.284-19.963,8.993-39.836,13.146-59.825
		c1.308-6.296,4.069-9.907,10.474-11.892c22.136-6.858,44.09-14.307,66.123-21.498c2.083-0.68,4.24-1.132,7.691-2.038
		c-3.652,9.761-9.754,16.714-13.886,26.494c3.607-1.391,6-1.989,8.067-3.163c13.423-7.625,27.806-10.119,43.087-8.863
		c5.934,0.488,11.942,0.043,17.915,0.102c2.229,0.022,4.456,0.27,7.105,0.442c0,12.102,0,23.687,0,36.022
		c-13.445,0.303-26.552,0.548-39.617-0.976c-0.208-0.469-0.416-0.938-0.624-1.406c3.985-3.46,7.97-6.921,12.816-11.128
		c-11.817-0.537-22.222-1.325-32.371,4.107c-18.011,9.64-36.405,18.566-54.659,27.749c-2.124,1.068-4.381,1.871-6.576,2.798
		c-0.432-0.373-0.864-0.746-1.297-1.119c3.305-10.603,6.611-21.207,10.096-32.387c-5.246,0.469-9.721,2.18-13.924,4.236
		c-1.804,0.882-3.506,3.228-4.048,5.234c-4.12,15.273-7.942,30.626-11.845,45.957c-0.051,0.202,0.055,0.444,0.199,1.429
		c4.999-1.335,9.911-2.771,14.884-3.948c9.147-2.165,18.299-4.338,27.517-6.161c2.984-0.59,6.183-0.093,11.063-0.093
		c-2.963,2.076-4.429,3.418-6.142,4.255c-19.382,9.472-38.73,19.018-58.256,28.186c-5.517,2.591-10.442,5.624-14.558,10.11
		c-5.434,5.923-10.918,11.807-16.581,17.51c-3.824,3.851-5.63,8.271-5.274,13.646c0.106,1.602,0.044,3.216,0.143,4.819
		c0.355,5.782-1.957,9.804-6.798,13.281c-17.162,12.327-34.032,25.062-50.994,37.668c-1.805,1.342-3.483,2.854-5.789,4.756
		c7.343,2.938,16.147-0.153,20.976,7.654c5.26-2.308,10.186-4.47,15.111-6.632c0.351,0.421,0.702,0.841,1.053,1.262
		c-3.71,8.899-7.44,17.792-16.5,23.123c-1.779,1.047-3.687,1.882-5.436,2.972c-6.048,3.771-7.175,10.439-2.462,15.877
		c5.102,5.887,11.52,9.777,19.201,11.417c2.021,0.431,4.057,0.919,6.108,1.054c5.801,0.381,10.571,2.748,14.575,6.904
		c1.088,1.129,2.475,1.971,4.027,3.179c1.364-0.913,2.779-1.621,3.898-2.651c4.392-4.041,8.629-8.251,13.045-12.266
		c3.083-2.803,4.224-5.765,2.207-9.758c-1.019-2.018-1.68-4.305-2.054-6.545c-1.123-6.721-5.6-9.585-11.723-10.868
		c-3.815-0.8-7.6-1.758-11.363-2.777c-1.255-0.34-2.398-1.091-4.495-2.078c1.64-0.856,2.453-1.511,3.369-1.722
		c7.601-1.748,15.187-3.589,22.845-5.048c6.097-1.162,6.385-0.795,8.882,4.706c0.646,1.423,1.414,2.791,2.423,4.766
		c6.09-4.781,11.853-9.29,17.599-13.819c16.778-13.225,33.566-26.438,50.315-39.7c5.306-4.202,5.311-4.311,2.411-10.194
		c-4.163-8.445-8.467-16.821-12.597-25.282c-2.689-5.509-2.594-5.729,2.217-9.785c9.132-7.7,18.232-15.441,27.485-22.993
		c3.827-3.123,5.235-6.554,3.784-11.445c-1.154-3.889-1.572-7.996-2.356-12.214c5.35,1.509,23.042,16.115,29.922,24.593
		c-6.439,8.129-15.514,13.794-22.756,22.095c1.891,1.699,3.5,3.243,5.211,4.664c20.499,17.026,40.888,34.189,61.615,50.933
		c4.992,4.033,7.272,8.233,6.667,14.613c-0.518,5.465-0.064,11.019-0.125,16.533c-0.022,2.004-0.291,4.005-0.524,6.997
		c-28.311-4.217-56.087-8.355-85.633-12.756c1.992,2.859,2.912,4.513,4.141,5.894c23.06,25.916,46.162,51.794,69.238,77.696
		c4.119,4.623,9.677,8.718,11.811,14.143c2.131,5.414,0.948,12.192,0.956,18.372c0.052,36.991,0.03,73.982,0.032,110.974
		C353.824,454.161,353.824,456.881,353.824,461.452z M218.201,313.54c-0.321,0.369-0.641,0.738-0.962,1.107
		c0.296,0.604,0.53,1.25,0.899,1.806c13.585,20.466,27.2,40.913,40.763,61.393c2.257,3.407,5.202,5.566,9.152,6.796
		c12.48,3.885,24.882,8.021,37.325,12.028c11.074,3.567,22.163,7.092,33.245,10.635c0.161-0.317,0.322-0.633,0.483-0.95
		C298.804,375.417,258.502,344.478,218.201,313.54z M121.428,288.626c-0.239,2.463-0.547,4.452-0.603,6.447
		c-0.146,5.265,0.05,10.55-0.333,15.795c-0.343,4.697,1.041,8.56,4.208,11.878c6.321,6.621,12.652,13.233,19.039,19.791
		c0.783,0.804,1.927,1.255,3.238,2.08c-0.229-6.209-4.04-11.157-2.863-17.337c6.522,1.951,11.113,7.124,18.263,7.672
		c-0.807-1.75-1.296-2.771-1.754-3.806c-3.109-7.036-8.302-13.285-8.011-21.62c0.035-1.012-0.648-2.325-1.421-3.046
		c-5.173-4.833-10.197-9.89-15.806-14.17C131.808,289.58,127.249,288.279,121.428,288.626z"/>
	<g>
		<path d="M261.018,505.787c-5.907,5.921-11.509,11.535-16.691,16.73c-5.14-2.115-9.986-4.898-15.197-6.094
			c-11.864-2.723-23.33,2.713-29.315,13.042c-5.752,9.927-4.664,22.839,2.665,31.605c7.602,9.094,20.119,12.478,31.189,8.176
			c2.71-1.053,6.551-1.608,5.766-6.914c-6.558-0.258-13.052-0.515-20.018-0.789c0-8.285,0-15.977,0-23.638
			c5.098-1.753,38.065-1.991,45.454-0.241c0,19.051,0,38.228,0,58.335c-8.027,0.671-15.933,0.726-23.875,0.014
			c-2.427-0.218-4.938-0.779-7.286-0.404c-21.745,3.476-39.764-3.251-52.698-20.884c-12.944-17.647-14.256-37.241-4.032-56.542
			c10.255-19.358,27.309-28.558,49.188-28.251C239.504,490.121,253.292,496.635,261.018,505.787z"/>
		<path d="M469.785,596.258c-8.467-0.276-16.62,1.356-24.773-0.989c-1.836-0.528-4.069,0.038-6.066,0.398
			c-29.214,5.27-56.59-13.322-61.913-43.09c-5.306-29.676,13.703-55.504,41.228-61.441c15.771-3.402,30.029,0.121,43.016,9.36
			c2.002,1.424,3.706,3.266,5.811,5.15c-6.298,5.748-12.154,11.093-17.851,16.293c-5.072-1.832-10.848-4.809-16.965-5.938
			c-11.438-2.112-22.87,4.721-28.026,15.611c-5.012,10.586-2.611,23.541,5.876,31.694c8.352,8.023,21.274,10.114,31.28,5.061
			c3.021-1.526,3.021-1.526,3.337-6.428c-3.196,0-6.348,0-9.499,0c-3.164,0-6.328,0-10.117,0c-1.105-8.609-0.729-16.455-0.24-25.255
			c15.257-0.274,30.032-0.156,44.594-0.081C471.264,542.512,471.501,588.427,469.785,596.258z"/>
		<path d="M133.686,596.443c-4.96,0-9.922,0.085-14.88-0.021c-6.398-0.136-13.416,1.135-19.011-1.097
			c-5.361-2.138-9.295-7.928-13.763-12.21c-5.949-5.701-11.808-11.497-18.339-17.87c-1.763,5.602-0.71,10.546-0.904,15.365
			c-0.193,4.791-0.042,9.596-0.042,15.262c-8.404,0.982-16.254,0.684-23.947,0.228c-1.709-5.353-2.157-96.279-0.523-105.746
			c7.649-0.731,15.488-0.684,24.208,0.126c0,10.146,0,19.867,0,30.991c2.573-1.967,4.044-2.881,5.263-4.056
			c8.267-7.969,16.501-15.972,24.695-24.016c2.018-1.981,4.01-3.561,7.122-3.512c9.414,0.148,18.832,0.071,28.248,0.128
			c0.625,0.004,1.247,0.389,2.43,0.784c-3.051,5.742-8.286,9.155-12.424,13.494c-4.277,4.485-8.837,8.7-13.278,13.028
			c-4.276,4.168-8.554,8.334-12.839,12.492c-4.432,4.3-8.876,8.589-13.845,13.396c17.798,17.363,35.146,34.287,52.494,51.212
			C134.128,595.094,133.907,595.768,133.686,596.443z"/>
		<path d="M284.528,490.463c7.953,0,15.63,0,24.12,0c0.232,2.786,0.634,5.418,0.642,8.052c0.056,18.364-0.001,36.729,0.067,55.094
			c0.009,2.488,0.105,5.109,0.871,7.434c2.054,6.229,8.688,10.448,14.968,9.94c6.948-0.562,12.862-6.19,13.776-13.279
			c0.263-2.037,0.161-4.125,0.163-6.19c0.012-17.676-0.005-35.352,0.025-53.028c0.004-2.464,0.22-4.928,0.328-7.182
			c6.207-1.857,18.151-1.898,24.621-0.118c0.156,1.815,0.473,3.815,0.477,5.815c0.035,19.742,0.133,39.485-0.016,59.226
			c-0.157,20.76-15.473,37.497-36.343,40.036c-19.488,2.371-38.38-10.897-43.325-30.553c-0.665-2.641-0.997-5.435-1.01-8.161
			c-0.097-20.66-0.09-41.32-0.064-61.98C283.829,494.032,284.238,492.495,284.528,490.463z"/>
		<path d="M490.003,490.481c8.003,0,15.668,0,24.118,0c0.221,2.831,0.599,5.471,0.606,8.112c0.05,18.134-0.019,36.269,0.062,54.404
			c0.012,2.711,0.161,5.57,1.018,8.098c2.24,6.603,9.042,10.664,15.674,9.818c6.912-0.881,12.538-6.847,13.05-13.928
			c0.132-1.828,0.059-3.671,0.059-5.508c0.004-17.676-0.011-35.351,0.022-53.027c0.005-2.462,0.237-4.924,0.392-7.91
			c8.423-0.958,16.273-0.879,24.593-0.077c0.217,2.512,0.537,4.508,0.54,6.504c0.035,19.971,0.249,39.945-0.044,59.912
			c-0.331,22.518-19.229,40.19-41.766,39.545c-21.099-0.603-38.591-17.837-38.875-38.824c-0.277-20.426-0.086-40.859-0.053-61.289
			C489.402,494.541,489.756,492.771,490.003,490.481z"/>
		<path d="M0.354,595.889c-0.152-3.038-0.343-5.082-0.344-7.127c-0.016-30.296-0.008-60.591-0.001-90.887
			c0-1.376,0.027-2.754,0.088-4.129c0.094-2.098,1.057-3.618,3.276-3.644c7.035-0.083,14.071-0.031,22.085-0.031
			c0.101,35.683,0.027,70.42,0.058,105.762C16.611,596.795,8.607,596.663,0.354,595.889z"/>
		<path d="M162.602,595.91c-8.671,0-16.342,0-24.501,0c0-35.269,0-70.003,0-105.292c7.499-1.266,14.784-0.744,22.031-0.366
			c0.949,0.049,2.3,1.56,2.606,2.638c0.488,1.713,0.313,3.632,0.314,5.464c0.013,29.823,0.019,59.647-0.009,89.47
			C163.04,590.294,162.78,592.762,162.602,595.91z"/>
	</g>
	<path d="M175.493,154.424c2.065,1.683,4.228,3.261,6.171,5.075c2.907,2.713,6.14,3.71,10.097,2.993
		c14.456-2.622,11.23-3.086,25.106,6.464c2.266,1.559,4.419,3.287,6.572,5.002c0.503,0.4,0.794,1.067,1.397,1.912
		c-3.057,3.06-7.197,3.117-10.737,3.286c-11.985,0.573-22.046,5.606-31.768,12.006c-9.006,5.929-18.215,11.551-27.388,17.222
		c-2.102,1.299-4.422,2.246-7.816,2.496c0.736-1.694,1.207-3.574,2.25-5.051c6.884-9.75,13.709-19.551,20.943-29.038
		c3.009-3.946,4.388-7.798,3.587-12.714c-0.466-2.857-0.085-5.852-0.085-8.785C174.379,155.003,174.936,154.713,175.493,154.424z"/>
	<path d="M353.382,108.659c0,6.48,0,11.846,0,17.119c-7.099,1.891-32.044,1.377-39.181-1.046
		C326.518,117.234,339.165,112.708,353.382,108.659z"/>
	<path d="M185.958,147.061c6.657-6.295,21.173-12.839,28.867-12.95c-4.387,5.812-8.181,11.147-12.376,16.144
		c-0.866,1.032-3.393,1.433-4.867,1.042C193.888,150.317,190.36,148.716,185.958,147.061z"/>
</g>
</svg>
